<?xml version="1.0" encoding="utf-8"?>
<!-- Generator: Adobe Illustrator 16.0.0, SVG Export Plug-In . SVG Version: 6.00 Build 0)  -->
<!DOCTYPE svg PUBLIC "-//W3C//DTD SVG 1.1//EN" "http://www.w3.org/Graphics/SVG/1.1/DTD/svg11.dtd">
<svg version="1.1" id="Layer_1" xmlns="http://www.w3.org/2000/svg" xmlns:xlink="http://www.w3.org/1999/xlink" x="0px" y="0px"
	 width="180px" height="40px" viewBox="0 0 180 40" enable-background="new 0 0 180 40" xml:space="preserve">
<g>
	<g>
		
			<linearGradient id="SVGID_1_" gradientUnits="userSpaceOnUse" x1="-1890.3115" y1="-1055.2251" x2="-1874.8384" y2="-1076.0803" gradientTransform="matrix(-0.6071 0.7946 -0.7946 -0.6071 -1965.1902 868.435)">
			<stop  offset="0" style="stop-color:#E0DFDF"/>
			<stop  offset="0.0729" style="stop-color:#E7E6E6"/>
			<stop  offset="0.2953" style="stop-color:#F4F4F4"/>
			<stop  offset="0.5638" style="stop-color:#FDFCFC"/>
			<stop  offset="1" style="stop-color:#FFFFFF"/>
		</linearGradient>
		<path fill="url(#SVGID_1_)" d="M32.107,9.168c-5.563-4.247-13.514-3.183-17.764,2.377c-4.249,5.563-3.185,13.518,2.378,17.77
			c5.558,4.246,13.515,3.183,17.765-2.381C38.736,21.373,37.673,13.417,32.107,9.168z"/>
		
			<linearGradient id="SVGID_2_" gradientUnits="userSpaceOnUse" x1="-180.8901" y1="-5.1016" x2="-192.2529" y2="-20.97" gradientTransform="matrix(0.8726 -0.4885 -0.4885 -0.8726 180.6809 -83.2041)">
			<stop  offset="0.0056" style="stop-color:#6EBE4C"/>
			<stop  offset="0.1632" style="stop-color:#69BB4D"/>
			<stop  offset="0.3398" style="stop-color:#5CB252"/>
			<stop  offset="0.5257" style="stop-color:#45A45A"/>
			<stop  offset="0.7166" style="stop-color:#268F65"/>
			<stop  offset="0.9045" style="stop-color:#007673"/>
		</linearGradient>
		<path fill="url(#SVGID_2_)" d="M32.7,13.547c-1.315-1.912-3.242-3.295-5.508-3.932c-2.566-0.728-5.265-0.409-7.594,0.896
			c-4.446,2.493-6.311,7.906-4.33,12.598c0.147,0.341,0.312,0.672,0.493,1c2.69,4.809,8.792,6.527,13.601,3.838
			c1.928-1.079,3.412-2.727,4.29-4.758l-4.586-1.977c-0.438,1.014-1.176,1.832-2.149,2.376c-1.605,0.902-3.501,0.81-4.985-0.069
			l10.306-5.77l1.711-0.961C33.947,16.79,33.769,15.137,32.7,13.547z M22.042,14.872c1.165-0.652,2.509-0.811,3.797-0.449
			c0.422,0.119,0.821,0.294,1.192,0.516l-7.546,4.224C19.509,17.427,20.433,15.769,22.042,14.872z"/>
	</g>
	<g>
		<path fill="#FFFFFF" d="M76.787,19.156c0,1.335-0.522,2.588-1.468,3.534c-0.94,0.943-2.2,1.465-3.536,1.465
			c-2.752,0-4.994-2.245-4.994-4.999c0-1.332,0.524-2.59,1.465-3.533c0.942-0.94,2.199-1.461,3.529-1.461
			c1.336,0,2.596,0.521,3.536,1.461C76.264,16.565,76.787,17.824,76.787,19.156z M71.783,9.166c-2.666,0-5.176,1.038-7.063,2.926
			c-1.884,1.888-2.923,4.396-2.923,7.064c0,5.51,4.48,9.991,9.986,9.991c5.515,0,9.997-4.479,9.997-9.991
			c0-2.668-1.039-5.177-2.93-7.064C76.965,10.204,74.456,9.166,71.783,9.166z"/>
	</g>
	<path fill="#FFFFFF" d="M123.555,18.081V8.489h-4.994v2.073c-1.48-0.835-3.137-1.321-4.885-1.321c-2.664,0-5.174,1.041-7.061,2.928
		c-1.887,1.888-2.93,4.396-2.93,7.065c0,5.51,4.486,9.991,9.99,9.991c1.783,0,3.43-0.509,4.885-1.326v1.326h4.994v-8.875V18.081
		L123.555,18.081z M117.217,22.77c-0.949,0.939-2.201,1.461-3.541,1.461c-2.752,0-4.992-2.238-4.992-4.997
		c0-1.332,0.518-2.591,1.465-3.533c0.941-0.94,2.199-1.46,3.527-1.46c1.34,0,2.592,0.52,3.541,1.46
		c0.793,0.8,1.205,1.838,1.344,2.942v1.18C118.422,20.926,118.01,21.967,117.217,22.77z"/>
	<g>
		<path fill="#FFFFFF" d="M55.957,19.156c0,1.335-0.521,2.588-1.464,3.534c-0.944,0.943-2.196,1.465-3.532,1.465
			c-2.756,0-4.998-2.245-4.998-4.999c0-1.332,0.523-2.59,1.465-3.533c0.94-0.94,2.199-1.461,3.533-1.461
			c1.335,0,2.588,0.521,3.532,1.461C55.436,16.565,55.957,17.824,55.957,19.156z M50.96,9.166c-2.67,0-5.179,1.038-7.066,2.926
			c-1.888,1.888-2.928,4.396-2.928,7.064c0,5.51,4.485,9.991,9.995,9.991c2.665,0,5.178-1.039,7.063-2.924
			c1.891-1.886,2.927-4.398,2.927-7.067c0-2.668-1.037-5.177-2.927-7.064C56.14,10.204,53.625,9.166,50.96,9.166z"/>
	</g>
	<g>
		<rect x="55.957" y="2.357" fill="#FFFFFF" width="4.994" height="26.499"/>
	</g>
	<path fill="#FFFFFF" d="M93.59,3.898c-0.982,0.037-1.918-0.319-2.633-0.986c-0.051-0.046-0.092-0.091-0.139-0.14h-4.241
		c0.382,1.046,1.004,2.016,1.868,2.828c2.962,2.768,7.626,2.605,10.394-0.357c0.678-0.726,1.193-1.564,1.521-2.471h-4.244
		C95.445,3.465,94.553,3.869,93.59,3.898z"/>
	<path fill="#FFFFFF" d="M102.814,18.704c-0.107-2.5-1.127-4.833-2.9-6.613c-1.891-1.888-4.398-2.926-7.066-2.926
		c-2.666,0-5.175,1.038-7.065,2.926c-1.882,1.888-2.925,4.396-2.925,7.064c0,5.51,4.479,9.992,9.99,9.992
		c1.824,0,3.523-0.496,4.998-1.352V28.3c0,1.335-0.518,2.591-1.463,3.533c-0.943,0.942-2.203,1.464-3.535,1.464
		c-1.309,0-2.496-0.505-3.388-1.333c-0.193-0.18-0.373-0.37-0.536-0.577l0.017-0.017c0,0-0.006-0.002-0.01-0.002l-3.688,3.405
		c1.833,2.149,4.568,3.518,7.605,3.518c1.848,0,3.57-0.512,5.057-1.389c2.949-1.738,4.936-4.941,4.936-8.604v-9.597h-0.025V18.704z
		 M92.848,24.152c-2.754,0-4.996-2.244-4.996-4.998c0-1.332,0.52-2.59,1.463-3.533c0.945-0.94,2.201-1.461,3.533-1.461
		s2.592,0.521,3.535,1.461c0.945,0.943,1.463,2.202,1.463,3.533c0,1.335-0.518,2.588-1.463,3.535
		C95.438,23.633,94.18,24.152,92.848,24.152z"/>
</g>
</svg>
